<?xml version="1.0" encoding="utf-8"?>
<!-- Generator: Adobe Illustrator 16.0.0, SVG Export Plug-In . SVG Version: 6.00 Build 0)  -->
<!DOCTYPE svg PUBLIC "-//W3C//DTD SVG 1.1//EN" "http://www.w3.org/Graphics/SVG/1.1/DTD/svg11.dtd">
<svg version="1.1" id="Layer_1" xmlns="http://www.w3.org/2000/svg" xmlns:xlink="http://www.w3.org/1999/xlink" x="0px" y="0px"
	 width="158.09px" height="162.922px" viewBox="0 0 158.09 162.922" enable-background="new 0 0 158.09 162.922"
	 xml:space="preserve">
<g>
	<rect x="238.873" y="-9.454" fill="#142237" width="189.395" height="195.72"/>
</g>
<g>
	<path fill="#005791" d="M65.613,75.182c8.814-6.033,11.067-18.067,5.033-26.877L54.686,59.22l-0.002-0.002
		c-4.403,3.017-10.421,1.894-13.44-2.516c-3.017-4.407-1.89-10.423,2.518-13.44c0.004-0.002,0.011-0.007,0.016-0.009l14.55-9.962
		l9.367-6.413C76.508,20.844,78.761,8.812,72.727,0L56.771,10.922L32.869,27.287c-0.011,0.009-0.022,0.014-0.033,0.021
		c-13.215,9.048-16.595,27.102-7.544,40.317c9.048,13.219,27.103,16.597,40.317,7.551L65.613,75.182z"/>
	<path fill="#005791" d="M86.597,37.372v0.002l-0.013,0.009c-0.036,0.024-0.067,0.054-0.103,0.078l0.121-0.083
		c-8.814,6.034-11.067,18.067-5.033,26.877l15.958-10.922l-0.007-0.006c4.407-3.017,10.423-1.894,13.438,2.513
		c3.019,4.405,1.894,10.423-2.513,13.442l0,0l-14.565,9.971l-9.367,6.413c-8.814,6.036-11.067,18.067-5.033,26.88l15.956-10.92
		l23.934-16.388v-0.002c13.217-9.048,16.597-27.098,7.549-40.315C117.864,31.699,99.812,28.323,86.597,37.372z"/>
</g>
<g>
	<rect x="238.873" y="221.771" fill="#142237" width="191.188" height="60.673"/>
</g>
<g>
	<g>
		<path fill="#8A9E97" d="M11.13,150.031c0-0.708-0.261-1.284-0.78-1.728c-0.521-0.443-1.175-0.848-1.961-1.212
			c-0.786-0.366-1.64-0.743-2.559-1.13c-0.919-0.388-1.771-0.864-2.557-1.429c-0.788-0.565-1.441-1.269-1.961-2.109
			c-0.521-0.842-0.78-1.917-0.78-3.224c0-1.13,0.188-2.109,0.564-2.94c0.377-0.831,0.915-1.522,1.612-2.076
			c0.698-0.554,1.523-0.964,2.476-1.23c0.951-0.265,2.015-0.397,3.188-0.397c1.353,0,2.626,0.116,3.821,0.348
			c1.196,0.232,2.182,0.571,2.958,1.015l-1.429,3.82c-0.487-0.31-1.218-0.593-2.192-0.847c-0.975-0.254-2.028-0.384-3.157-0.384
			c-1.063,0-1.876,0.212-2.442,0.632c-0.564,0.423-0.847,0.986-0.847,1.696c0,0.664,0.261,1.217,0.781,1.659
			c0.521,0.443,1.173,0.854,1.961,1.23c0.785,0.376,1.639,0.763,2.559,1.163c0.918,0.398,1.771,0.88,2.557,1.444
			c0.785,0.565,1.44,1.264,1.96,2.094c0.521,0.831,0.781,1.866,0.781,3.107c0,1.239-0.205,2.308-0.615,3.205
			c-0.41,0.896-0.986,1.646-1.728,2.242c-0.743,0.6-1.639,1.043-2.691,1.329c-1.052,0.287-2.209,0.434-3.471,0.434
			c-1.661,0-3.123-0.156-4.386-0.466c-1.262-0.311-2.192-0.621-2.791-0.931l1.463-3.888c0.243,0.134,0.558,0.277,0.946,0.433
			c0.389,0.155,0.825,0.298,1.313,0.431c0.485,0.134,1.001,0.244,1.544,0.333c0.542,0.088,1.103,0.133,1.678,0.133
			c1.351,0,2.386-0.228,3.107-0.682C10.771,151.653,11.13,150.961,11.13,150.031z"/>
		<path fill="#8A9E97" d="M17.343,134.98c0-0.643,0.237-1.19,0.714-1.645c0.476-0.453,1.135-0.68,1.976-0.68
			c0.842,0,1.524,0.227,2.044,0.68c0.52,0.454,0.781,1.002,0.781,1.645c0,0.644-0.261,1.181-0.781,1.611
			c-0.521,0.433-1.202,0.648-2.044,0.648c-0.841,0-1.5-0.216-1.976-0.648C17.581,136.161,17.343,135.624,17.343,134.98z
			 M17.975,139.666h4.319v16.612h-4.319V139.666z"/>
		<path fill="#8A9E97" d="M30.002,150.697c0,0.773,0.099,1.34,0.297,1.693c0.199,0.354,0.521,0.532,0.965,0.532
			c0.265,0,0.524-0.022,0.78-0.067c0.254-0.044,0.57-0.144,0.947-0.299l0.466,3.389c-0.354,0.177-0.897,0.355-1.629,0.532
			c-0.729,0.177-1.484,0.267-2.258,0.267c-1.263,0-2.226-0.294-2.892-0.883c-0.664-0.586-0.996-1.555-0.996-2.905v-19.936h4.32
			V150.697z"/>
		<path fill="#8A9E97" d="M40.069,148.371l0.565,2.558H40.8l0.465-2.625l2.823-8.638h4.652l-6.944,16.778h-2.626l-7.209-16.778
			h5.017L40.069,148.371z"/>
		<path fill="#8A9E97" d="M62.229,154.849c-0.664,0.532-1.567,0.98-2.707,1.346c-1.142,0.365-2.354,0.55-3.639,0.55
			c-2.68,0-4.641-0.782-5.88-2.343c-1.241-1.562-1.862-3.704-1.862-6.43c0-2.924,0.699-5.116,2.093-6.579
			c1.395-1.461,3.357-2.192,5.88-2.192c0.843,0,1.662,0.111,2.459,0.333c0.798,0.222,1.506,0.587,2.127,1.096
			c0.619,0.51,1.117,1.195,1.494,2.061c0.377,0.864,0.566,1.938,0.566,3.223c0,0.465-0.028,0.964-0.083,1.494
			c-0.056,0.532-0.139,1.087-0.249,1.662h-9.935c0.065,1.396,0.425,2.447,1.076,3.156c0.651,0.709,1.706,1.062,3.163,1.062
			c0.903,0,1.715-0.137,2.433-0.415c0.716-0.277,1.263-0.56,1.639-0.847L62.229,154.849z M56.065,142.655
			c-1.124,0-1.958,0.338-2.497,1.014c-0.541,0.676-0.863,1.578-0.975,2.708h6.147c0.088-1.197-0.093-2.115-0.544-2.758
			C57.744,142.977,57.034,142.655,56.065,142.655z"/>
		<path fill="#8A9E97" d="M73.99,143.719c-0.687-0.243-1.307-0.364-1.861-0.364c-0.774,0-1.423,0.205-1.943,0.613
			c-0.521,0.41-0.869,0.938-1.046,1.579v10.731h-4.32v-16.612h3.357l0.498,2.192h0.132c0.378-0.819,0.887-1.45,1.528-1.894
			c0.643-0.443,1.396-0.665,2.26-0.665c0.576,0,1.229,0.122,1.96,0.366L73.99,143.719z"/>
		<path fill="#8A9E97" d="M86.915,150.363c0-0.93-0.276-1.688-0.83-2.275c-0.554-0.586-1.247-1.107-2.078-1.562
			c-0.83-0.453-1.732-0.88-2.707-1.278c-0.975-0.397-1.877-0.88-2.708-1.445c-0.831-0.564-1.524-1.263-2.076-2.093
			c-0.555-0.83-0.831-1.889-0.831-3.173c0-1.816,0.631-3.256,1.894-4.319c1.263-1.064,3.057-1.595,5.382-1.595
			c1.352,0,2.582,0.1,3.689,0.298c1.107,0.199,1.97,0.455,2.591,0.766l-0.831,2.425c-0.509-0.244-1.258-0.477-2.242-0.698
			c-0.987-0.221-2.1-0.331-3.34-0.331c-1.461,0-2.559,0.326-3.29,0.979c-0.729,0.652-1.096,1.424-1.096,2.31
			c0,0.863,0.278,1.584,0.83,2.159c0.554,0.577,1.247,1.092,2.078,1.545c0.83,0.454,1.732,0.902,2.707,1.346
			c0.975,0.443,1.878,0.958,2.708,1.544c0.83,0.588,1.523,1.292,2.077,2.111c0.554,0.818,0.831,1.838,0.831,3.056
			c0,0.997-0.178,1.895-0.533,2.691c-0.354,0.798-0.875,1.484-1.562,2.06c-0.687,0.576-1.518,1.019-2.491,1.329
			c-0.975,0.312-2.082,0.466-3.323,0.466c-1.66,0-3.035-0.129-4.119-0.382c-1.086-0.254-1.927-0.537-2.525-0.848l0.93-2.491
			c0.509,0.287,1.262,0.569,2.259,0.847c0.996,0.276,2.114,0.416,3.355,0.416c0.731,0,1.417-0.073,2.061-0.217
			c0.642-0.145,1.195-0.377,1.66-0.698c0.466-0.321,0.836-0.726,1.113-1.213C86.776,151.604,86.915,151.027,86.915,150.363z"/>
		<path fill="#8A9E97" d="M90.603,139.666h2.591v-3.289l2.657-0.766v4.055h4.52v2.325h-4.52v9.202c0,1.152,0.145,1.968,0.433,2.442
			c0.287,0.477,0.775,0.715,1.462,0.715c0.575,0,1.063-0.06,1.462-0.183c0.397-0.121,0.841-0.283,1.328-0.482l0.599,2.026
			c-0.599,0.289-1.251,0.521-1.96,0.699c-0.709,0.177-1.474,0.266-2.293,0.266c-1.351,0-2.303-0.382-2.856-1.146
			s-0.83-2.044-0.83-3.838v-9.701h-2.591V139.666z"/>
		<path fill="#8A9E97" d="M110.902,142.225c-0.664-0.222-1.296-0.333-1.894-0.333c-0.952,0-1.706,0.261-2.259,0.78
			c-0.554,0.521-0.897,1.179-1.029,1.978v11.629h-2.658v-16.612h1.86l0.498,2.026h0.134c0.42-0.754,0.923-1.334,1.512-1.744
			c0.586-0.41,1.333-0.614,2.242-0.614c0.642,0,1.363,0.109,2.159,0.332L110.902,142.225z"/>
		<path fill="#8A9E97" d="M113.362,134.615c0-0.509,0.17-0.946,0.514-1.312c0.344-0.366,0.782-0.548,1.313-0.548
			s0.985,0.182,1.361,0.548c0.377,0.366,0.566,0.804,0.566,1.312c0,0.51-0.188,0.931-0.566,1.263
			c-0.376,0.333-0.83,0.499-1.361,0.499s-0.969-0.166-1.313-0.499C113.532,135.546,113.362,135.125,113.362,134.615z
			 M113.926,139.666h2.658v16.612h-2.658V139.666z"/>
		<path fill="#8A9E97" d="M121.268,139.666h1.827l0.499,1.992h0.133c0.509-0.773,1.168-1.366,1.976-1.776
			c0.809-0.41,1.733-0.615,2.775-0.615c2.214,0,3.864,0.654,4.951,1.961c1.085,1.307,1.626,3.444,1.626,6.411
			c0,1.396-0.182,2.652-0.547,3.771c-0.366,1.118-0.88,2.065-1.545,2.842c-0.664,0.774-1.468,1.373-2.41,1.793
			c-0.94,0.422-1.987,0.632-3.139,0.632c-0.82,0-1.467-0.05-1.944-0.15c-0.476-0.099-0.99-0.271-1.544-0.515v6.91h-2.658V139.666z
			 M127.979,141.592c-1.13,0-2.021,0.294-2.674,0.882c-0.654,0.586-1.114,1.478-1.379,2.674v8.239
			c0.398,0.311,0.853,0.549,1.363,0.715c0.509,0.167,1.184,0.249,2.026,0.249c1.528,0,2.742-0.57,3.638-1.711
			c0.897-1.141,1.346-2.817,1.346-5.033c0-0.908-0.079-1.733-0.232-2.476c-0.156-0.742-0.406-1.372-0.749-1.894
			c-0.343-0.521-0.786-0.925-1.328-1.212C129.446,141.736,128.778,141.592,127.979,141.592z"/>
		<path fill="#8A9E97" d="M150.373,154.949c-0.666,0.531-1.501,0.951-2.509,1.262c-1.009,0.312-2.077,0.466-3.206,0.466
			c-1.262,0-2.36-0.205-3.29-0.614c-0.93-0.41-1.694-0.997-2.292-1.762c-0.597-0.765-1.041-1.678-1.329-2.74
			c-0.288-1.063-0.431-2.26-0.431-3.589c0-2.835,0.63-4.995,1.894-6.479c1.262-1.482,3.067-2.226,5.415-2.226
			c0.753,0,1.506,0.084,2.259,0.25c0.753,0.166,1.428,0.482,2.027,0.946c0.598,0.465,1.085,1.125,1.462,1.978
			c0.375,0.853,0.564,1.977,0.564,3.372c0,0.73-0.067,1.54-0.2,2.426h-10.665c0,0.974,0.1,1.837,0.298,2.591
			c0.201,0.753,0.51,1.391,0.93,1.91c0.422,0.521,0.969,0.919,1.646,1.196c0.675,0.277,1.5,0.415,2.476,0.415
			c0.753,0,1.505-0.132,2.259-0.398c0.752-0.267,1.318-0.575,1.694-0.931L150.373,154.949z M144.658,141.592
			c-1.308,0-2.354,0.344-3.141,1.03c-0.785,0.688-1.257,1.86-1.412,3.521h8.24c0-1.682-0.321-2.862-0.964-3.538
			C146.739,141.931,145.831,141.592,144.658,141.592z"/>
	</g>
</g>
<g>
	<path fill="#44C8F5" d="M272.218,259.023c3.198-2.191,4.018-6.56,1.827-9.759l-5.794,3.963l-0.001-0.002
		c-1.598,1.098-3.783,0.688-4.88-0.912c-1.095-1.6-0.687-3.784,0.916-4.88c0,0,0.002-0.001,0.004-0.003l5.283-3.617l3.4-2.326
		c3.2-2.191,4.017-6.561,1.827-9.76l-5.792,3.967l-8.68,5.939c-0.002,0.005-0.006,0.006-0.012,0.008
		c-4.797,3.287-6.023,9.84-2.738,14.637c3.286,4.801,9.84,6.025,14.637,2.741L272.218,259.023z"/>
	<path fill="#44C8F5" d="M279.836,245.297L279.836,245.297l-0.005,0.002c-0.013,0.011-0.024,0.02-0.036,0.029l0.041-0.029
		c-3.197,2.19-4.017,6.557-1.826,9.757l5.793-3.966l-0.002-0.002c1.6-1.095,3.785-0.688,4.878,0.913
		c1.097,1.598,0.688,3.784-0.912,4.88l0,0l-5.287,3.619l-3.401,2.33c-3.2,2.188-4.016,6.56-1.827,9.758l5.792-3.966l8.689-5.949
		v-0.001c4.799-3.284,6.026-9.837,2.742-14.636C291.188,243.237,284.634,242.011,279.836,245.297z"/>
</g>
<g>
	<g>
		<path fill="#FFFFFF" d="M311.495,256.15c0-0.514-0.189-0.932-0.566-1.254c-0.38-0.321-0.854-0.616-1.425-0.879
			c-0.57-0.268-1.19-0.54-1.857-0.822c-0.666-0.279-1.285-0.626-1.854-1.037c-0.571-0.41-1.048-0.92-1.425-1.53
			c-0.378-0.61-0.567-1.393-0.567-2.34c0-0.821,0.138-1.531,0.411-2.135s0.663-1.104,1.17-1.507
			c0.505-0.401,1.105-0.698,1.797-0.894c0.69-0.191,1.465-0.288,2.315-0.288c0.981,0,1.906,0.084,2.772,0.251
			c0.868,0.171,1.585,0.416,2.146,0.738l-1.035,2.773c-0.354-0.225-0.887-0.43-1.593-0.615c-0.707-0.184-1.472-0.278-2.29-0.278
			c-0.772,0-1.362,0.154-1.772,0.459c-0.41,0.306-0.615,0.716-0.615,1.231c0,0.481,0.188,0.883,0.564,1.204
			c0.382,0.321,0.853,0.619,1.427,0.894c0.569,0.271,1.188,0.554,1.854,0.845c0.668,0.288,1.285,0.637,1.858,1.048
			c0.569,0.409,1.045,0.916,1.424,1.519c0.376,0.604,0.564,1.355,0.564,2.256s-0.148,1.675-0.444,2.326
			c-0.3,0.651-0.717,1.194-1.256,1.628c-0.539,0.436-1.19,0.757-1.954,0.966c-0.762,0.208-1.603,0.315-2.519,0.315
			c-1.208,0-2.267-0.114-3.184-0.339c-0.918-0.226-1.594-0.45-2.025-0.676l1.062-2.822c0.175,0.096,0.404,0.201,0.688,0.312
			c0.28,0.114,0.598,0.218,0.952,0.313c0.351,0.098,0.727,0.177,1.12,0.241c0.394,0.065,0.801,0.098,1.219,0.098
			c0.979,0,1.732-0.165,2.256-0.496C311.233,257.328,311.495,256.824,311.495,256.15z"/>
		<path fill="#FFFFFF" d="M316.006,245.226c0-0.467,0.171-0.864,0.517-1.194c0.347-0.328,0.824-0.493,1.435-0.493
			c0.612,0,1.106,0.165,1.485,0.493c0.379,0.33,0.564,0.728,0.564,1.194s-0.186,0.855-0.564,1.169
			c-0.379,0.314-0.873,0.473-1.485,0.473c-0.61,0-1.088-0.158-1.435-0.473C316.177,246.081,316.006,245.692,316.006,245.226z
			 M316.464,248.625h3.134v12.061h-3.134V248.625z"/>
		<path fill="#FFFFFF" d="M325.193,256.634c0,0.562,0.072,0.973,0.216,1.229c0.145,0.258,0.379,0.388,0.701,0.388
			c0.192,0,0.38-0.017,0.565-0.05c0.184-0.031,0.414-0.104,0.688-0.218l0.338,2.46c-0.258,0.129-0.652,0.26-1.183,0.388
			s-1.078,0.194-1.639,0.194c-0.917,0-1.616-0.214-2.099-0.642c-0.483-0.426-0.725-1.129-0.725-2.109v-14.473h3.137V256.634z"/>
		<path fill="#FFFFFF" d="M332.501,254.944l0.41,1.857h0.12l0.338-1.905l2.049-6.271h3.378l-5.04,12.181h-1.907l-5.232-12.181h3.642
			L332.501,254.944z"/>
		<path fill="#FFFFFF" d="M348.588,259.647c-0.481,0.386-1.138,0.71-1.966,0.977s-1.71,0.4-2.641,0.4
			c-1.946,0-3.37-0.568-4.269-1.701c-0.901-1.135-1.352-2.689-1.352-4.668c0-2.122,0.507-3.715,1.52-4.776
			c1.013-1.06,2.438-1.591,4.268-1.591c0.613,0,1.208,0.081,1.786,0.242c0.579,0.16,1.094,0.426,1.543,0.795
			c0.451,0.369,0.812,0.868,1.086,1.495c0.273,0.627,0.41,1.407,0.41,2.341c0,0.337-0.021,0.698-0.06,1.083
			c-0.041,0.388-0.101,0.791-0.182,1.206h-7.211c0.047,1.014,0.309,1.777,0.781,2.292c0.473,0.516,1.237,0.771,2.295,0.771
			c0.656,0,1.245-0.098,1.766-0.3c0.521-0.201,0.918-0.407,1.191-0.614L348.588,259.647z M344.111,250.797
			c-0.813,0-1.42,0.244-1.811,0.735c-0.393,0.49-0.627,1.145-0.709,1.966h4.464c0.064-0.869-0.067-1.534-0.396-2.001
			C345.332,251.029,344.815,250.797,344.111,250.797z"/>
		<path fill="#FFFFFF" d="M357.126,251.567c-0.5-0.177-0.95-0.264-1.353-0.264c-0.562,0-1.033,0.147-1.409,0.444
			c-0.379,0.299-0.633,0.681-0.761,1.146v7.791h-3.135v-12.061h2.436l0.36,1.592h0.097c0.273-0.593,0.644-1.052,1.11-1.373
			s1.013-0.483,1.639-0.483c0.419,0,0.895,0.088,1.424,0.265L357.126,251.567z"/>
		<path fill="#FFFFFF" d="M366.505,256.392c0-0.675-0.198-1.227-0.602-1.653c-0.401-0.424-0.905-0.803-1.508-1.132
			c-0.603-0.331-1.257-0.64-1.966-0.93c-0.707-0.288-1.362-0.639-1.964-1.049c-0.604-0.41-1.107-0.917-1.508-1.519
			c-0.401-0.603-0.604-1.371-0.604-2.305c0-1.316,0.459-2.361,1.375-3.134s2.221-1.157,3.906-1.157c0.981,0,1.875,0.071,2.679,0.216
			c0.803,0.145,1.43,0.329,1.879,0.555l-0.602,1.761c-0.369-0.178-0.915-0.345-1.627-0.506c-0.718-0.161-1.526-0.241-2.424-0.241
			c-1.061,0-1.858,0.237-2.389,0.711c-0.53,0.475-0.796,1.034-0.796,1.678c0,0.625,0.201,1.147,0.602,1.566
			c0.402,0.419,0.905,0.792,1.509,1.121c0.602,0.331,1.258,0.655,1.965,0.977c0.707,0.322,1.361,0.696,1.967,1.121
			c0.602,0.427,1.105,0.938,1.507,1.531c0.402,0.597,0.602,1.336,0.602,2.22c0,0.723-0.128,1.376-0.386,1.954
			c-0.257,0.577-0.635,1.077-1.134,1.495c-0.498,0.418-1.101,0.738-1.809,0.965c-0.707,0.226-1.51,0.337-2.41,0.337
			c-1.206,0-2.203-0.094-2.991-0.277c-0.789-0.184-1.399-0.389-1.834-0.614l0.676-1.809c0.369,0.208,0.917,0.413,1.641,0.614
			c0.722,0.201,1.536,0.302,2.437,0.302c0.53,0,1.028-0.053,1.495-0.157c0.466-0.104,0.869-0.274,1.205-0.506
			c0.339-0.232,0.606-0.525,0.808-0.881C366.406,257.293,366.505,256.874,366.505,256.392z"/>
		<path fill="#FFFFFF" d="M369.184,248.625h1.882v-2.387l1.929-0.555v2.941h3.279v1.689h-3.279v6.68
			c0,0.837,0.104,1.428,0.313,1.772c0.208,0.347,0.562,0.52,1.062,0.52c0.418,0,0.771-0.044,1.061-0.134
			c0.287-0.087,0.61-0.204,0.964-0.35l0.435,1.472c-0.435,0.209-0.907,0.378-1.421,0.506c-0.518,0.13-1.071,0.193-1.667,0.193
			c-0.979,0-1.67-0.277-2.072-0.831c-0.403-0.557-0.603-1.483-0.603-2.786v-7.042h-1.882V248.625z"/>
		<path fill="#FFFFFF" d="M383.919,250.484c-0.481-0.162-0.941-0.242-1.376-0.242c-0.689,0-1.237,0.188-1.639,0.566
			c-0.403,0.379-0.65,0.855-0.749,1.435v8.442h-1.927v-12.061h1.349l0.362,1.472h0.097c0.305-0.547,0.671-0.969,1.097-1.266
			c0.427-0.298,0.968-0.446,1.629-0.446c0.465,0,0.989,0.081,1.566,0.24L383.919,250.484z"/>
		<path fill="#FFFFFF" d="M385.703,244.961c0-0.37,0.125-0.688,0.374-0.953c0.25-0.266,0.566-0.398,0.953-0.398
			s0.716,0.133,0.989,0.398c0.274,0.266,0.409,0.583,0.409,0.953c0,0.369-0.135,0.675-0.409,0.915
			c-0.273,0.242-0.603,0.362-0.989,0.362s-0.703-0.12-0.953-0.362C385.828,245.636,385.703,245.33,385.703,244.961z
			 M386.114,248.625h1.928v12.061h-1.928V248.625z"/>
		<path fill="#FFFFFF" d="M391.443,248.625h1.326l0.362,1.448h0.096c0.37-0.562,0.85-0.994,1.436-1.29
			c0.588-0.298,1.259-0.447,2.014-0.447c1.608,0,2.808,0.475,3.595,1.424c0.787,0.948,1.181,2.5,1.181,4.654
			c0,1.013-0.133,1.924-0.397,2.737c-0.266,0.812-0.638,1.499-1.121,2.062c-0.482,0.563-1.066,0.998-1.749,1.302
			c-0.684,0.307-1.443,0.459-2.279,0.459c-0.597,0-1.065-0.036-1.411-0.107c-0.348-0.073-0.718-0.197-1.121-0.375v5.018h-1.93
			V248.625z M396.314,250.024c-0.818,0-1.467,0.215-1.94,0.64c-0.475,0.426-0.809,1.073-1.001,1.942v5.98
			c0.288,0.225,0.619,0.398,0.989,0.518c0.369,0.121,0.858,0.182,1.47,0.182c1.111,0,1.992-0.414,2.643-1.241
			c0.65-0.829,0.977-2.046,0.977-3.655c0-0.658-0.059-1.258-0.17-1.797c-0.111-0.538-0.294-0.997-0.543-1.375
			c-0.249-0.377-0.57-0.67-0.964-0.88C397.381,250.129,396.896,250.024,396.314,250.024z"/>
		<path fill="#FFFFFF" d="M412.57,259.721c-0.482,0.386-1.09,0.689-1.82,0.916c-0.731,0.226-1.508,0.337-2.329,0.337
			c-0.915,0-1.712-0.147-2.387-0.445c-0.676-0.299-1.231-0.725-1.666-1.279c-0.433-0.555-0.754-1.218-0.962-1.989
			c-0.21-0.771-0.313-1.64-0.313-2.604c0-2.058,0.456-3.626,1.374-4.704c0.915-1.076,2.228-1.615,3.931-1.615
			c0.548,0,1.093,0.062,1.639,0.182c0.549,0.122,1.039,0.35,1.472,0.688c0.434,0.337,0.788,0.816,1.062,1.437
			c0.273,0.618,0.409,1.434,0.409,2.446c0,0.53-0.049,1.118-0.145,1.761h-7.74c0,0.708,0.071,1.334,0.215,1.881
			c0.147,0.547,0.371,1.009,0.677,1.386c0.305,0.379,0.702,0.667,1.193,0.87c0.489,0.2,1.09,0.301,1.796,0.301
			c0.549,0,1.095-0.097,1.641-0.288c0.546-0.195,0.958-0.419,1.23-0.676L412.57,259.721z M408.421,250.024
			c-0.949,0-1.709,0.25-2.279,0.747c-0.569,0.5-0.911,1.351-1.024,2.557h5.981c0-1.221-0.232-2.076-0.7-2.567
			C409.932,250.271,409.273,250.024,408.421,250.024z"/>
	</g>
</g>
<g>
	<path fill="#005791" d="M7.548,259.023c3.198-2.191,4.017-6.56,1.827-9.759l-5.794,3.963l-0.001-0.002
		c-1.598,1.098-3.784,0.688-4.88-0.912c-1.095-1.6-0.686-3.784,0.916-4.88c0,0,0.002-0.001,0.004-0.003l5.283-3.617l3.4-2.326
		c3.201-2.191,4.018-6.561,1.827-9.76l-5.792,3.967l-8.679,5.939c-0.002,0.005-0.006,0.006-0.011,0.008
		c-4.797,3.287-6.024,9.84-2.738,14.637c3.285,4.801,9.839,6.025,14.636,2.741L7.548,259.023z"/>
	<path fill="#005791" d="M15.166,245.297L15.166,245.297l-0.004,0.002c-0.014,0.011-0.024,0.02-0.037,0.029l0.042-0.029
		c-3.197,2.19-4.016,6.557-1.826,9.757l5.793-3.966l-0.002-0.002c1.6-1.095,3.786-0.688,4.878,0.913
		c1.096,1.598,0.688,3.784-0.913,4.88l0,0l-5.287,3.619l-3.401,2.33c-3.201,2.188-4.016,6.56-1.827,9.758l5.792-3.966l8.69-5.949
		v-0.001c4.798-3.284,6.026-9.837,2.742-14.636C26.518,243.237,19.964,242.011,15.166,245.297z"/>
</g>
<g>
	<path fill="#8A9E97" d="M46.824,256.15c0-0.514-0.189-0.932-0.566-1.254c-0.38-0.321-0.854-0.616-1.425-0.879
		c-0.57-0.268-1.191-0.54-1.857-0.822c-0.667-0.279-1.286-0.626-1.855-1.037c-0.571-0.41-1.048-0.92-1.425-1.53
		c-0.378-0.61-0.567-1.393-0.567-2.34c0-0.821,0.137-1.531,0.411-2.135c0.273-0.604,0.663-1.104,1.17-1.507
		c0.505-0.401,1.105-0.698,1.797-0.894c0.691-0.191,1.465-0.288,2.315-0.288c0.981,0,1.906,0.084,2.773,0.251
		c0.868,0.171,1.585,0.416,2.146,0.738l-1.035,2.773c-0.354-0.225-0.887-0.43-1.593-0.615c-0.708-0.184-1.472-0.278-2.291-0.278
		c-0.772,0-1.362,0.154-1.772,0.459c-0.41,0.306-0.615,0.716-0.615,1.231c0,0.481,0.188,0.883,0.565,1.204
		c0.381,0.321,0.852,0.619,1.426,0.894c0.569,0.271,1.189,0.554,1.855,0.845c0.668,0.288,1.286,0.637,1.858,1.048
		c0.569,0.409,1.045,0.916,1.423,1.519c0.377,0.604,0.565,1.355,0.565,2.256s-0.148,1.675-0.444,2.326
		c-0.3,0.651-0.716,1.194-1.255,1.628c-0.54,0.436-1.191,0.757-1.954,0.966c-0.762,0.208-1.604,0.315-2.519,0.315
		c-1.208,0-2.267-0.114-3.184-0.339c-0.918-0.226-1.593-0.45-2.025-0.676l1.062-2.822c0.175,0.096,0.404,0.201,0.687,0.312
		c0.281,0.114,0.599,0.218,0.953,0.313c0.351,0.098,0.727,0.177,1.12,0.241c0.395,0.065,0.801,0.098,1.219,0.098
		c0.98,0,1.732-0.165,2.256-0.496C46.562,257.328,46.824,256.824,46.824,256.15z"/>
	<path fill="#8A9E97" d="M51.335,245.226c0-0.467,0.172-0.864,0.517-1.194c0.347-0.328,0.824-0.493,1.435-0.493
		c0.611,0,1.106,0.165,1.485,0.493c0.379,0.33,0.565,0.728,0.565,1.194s-0.186,0.855-0.565,1.169
		c-0.379,0.314-0.874,0.473-1.485,0.473c-0.611,0-1.088-0.158-1.435-0.473C51.507,246.081,51.335,245.692,51.335,245.226z
		 M51.793,248.625h3.134v12.061h-3.134V248.625z"/>
	<path fill="#8A9E97" d="M60.522,256.634c0,0.562,0.073,0.973,0.216,1.229c0.145,0.258,0.379,0.388,0.701,0.388
		c0.193,0,0.38-0.017,0.566-0.05c0.184-0.031,0.415-0.104,0.688-0.218l0.337,2.46c-0.257,0.129-0.651,0.26-1.182,0.388
		s-1.079,0.194-1.639,0.194c-0.917,0-1.616-0.214-2.099-0.642c-0.483-0.426-0.724-1.129-0.724-2.109v-14.473h3.136V256.634z"/>
	<path fill="#8A9E97" d="M67.831,254.944l0.41,1.857h0.121l0.337-1.905l2.049-6.271h3.377l-5.04,12.181h-1.907l-5.233-12.181h3.642
		L67.831,254.944z"/>
	<path fill="#8A9E97" d="M83.917,259.647c-0.481,0.386-1.137,0.71-1.966,0.977c-0.828,0.267-1.71,0.4-2.64,0.4
		c-1.946,0-3.37-0.568-4.269-1.701c-0.901-1.135-1.351-2.689-1.351-4.668c0-2.122,0.507-3.715,1.52-4.776
		c1.013-1.06,2.438-1.591,4.268-1.591c0.613,0,1.208,0.081,1.786,0.242c0.579,0.16,1.094,0.426,1.543,0.795
		c0.451,0.369,0.812,0.868,1.086,1.495c0.273,0.627,0.41,1.407,0.41,2.341c0,0.337-0.02,0.698-0.059,1.083
		c-0.042,0.388-0.102,0.791-0.182,1.206h-7.211c0.047,1.014,0.309,1.777,0.781,2.292c0.472,0.516,1.238,0.771,2.295,0.771
		c0.656,0,1.246-0.098,1.766-0.3c0.521-0.201,0.918-0.407,1.191-0.614L83.917,259.647z M79.441,250.797
		c-0.814,0-1.42,0.244-1.812,0.735c-0.392,0.49-0.626,1.145-0.708,1.966h4.464c0.065-0.869-0.068-1.534-0.396-2.001
		C80.661,251.029,80.146,250.797,79.441,250.797z"/>
	<path fill="#8A9E97" d="M92.456,251.567c-0.5-0.177-0.95-0.264-1.353-0.264c-0.562,0-1.034,0.147-1.409,0.444
		c-0.378,0.299-0.633,0.681-0.761,1.146v7.791h-3.135v-12.061h2.435l0.361,1.592h0.097c0.273-0.593,0.643-1.052,1.109-1.373
		s1.013-0.483,1.639-0.483c0.419,0,0.895,0.088,1.424,0.265L92.456,251.567z"/>
	<path fill="#8A9E97" d="M101.835,256.392c0-0.675-0.198-1.227-0.602-1.653c-0.402-0.424-0.906-0.803-1.509-1.132
		c-0.603-0.331-1.256-0.64-1.965-0.93c-0.708-0.288-1.363-0.639-1.964-1.049c-0.604-0.41-1.107-0.917-1.508-1.519
		c-0.401-0.603-0.603-1.371-0.603-2.305c0-1.316,0.459-2.361,1.375-3.134c0.916-0.772,2.22-1.157,3.906-1.157
		c0.981,0,1.875,0.071,2.68,0.216c0.802,0.145,1.429,0.329,1.878,0.555l-0.602,1.761c-0.369-0.178-0.915-0.345-1.626-0.506
		c-0.717-0.161-1.526-0.241-2.424-0.241c-1.061,0-1.858,0.237-2.388,0.711c-0.53,0.475-0.795,1.034-0.795,1.678
		c0,0.625,0.2,1.147,0.602,1.566c0.402,0.419,0.904,0.792,1.508,1.121c0.602,0.331,1.258,0.655,1.965,0.977
		c0.706,0.322,1.361,0.696,1.966,1.121c0.602,0.427,1.105,0.938,1.507,1.531c0.402,0.597,0.602,1.336,0.602,2.22
		c0,0.723-0.128,1.376-0.387,1.954c-0.256,0.577-0.634,1.077-1.133,1.495c-0.498,0.418-1.101,0.738-1.81,0.965
		c-0.706,0.226-1.509,0.337-2.41,0.337c-1.207,0-2.204-0.094-2.991-0.277c-0.789-0.184-1.399-0.389-1.833-0.614l0.675-1.809
		c0.37,0.208,0.917,0.413,1.641,0.614c0.722,0.201,1.537,0.302,2.437,0.302c0.53,0,1.028-0.053,1.495-0.157
		c0.466-0.104,0.869-0.274,1.206-0.506c0.338-0.232,0.606-0.525,0.808-0.881C101.736,257.293,101.835,256.874,101.835,256.392z"/>
	<path fill="#8A9E97" d="M104.513,248.625h1.881v-2.387l1.93-0.555v2.941h3.278v1.689h-3.278v6.68c0,0.837,0.104,1.428,0.313,1.772
		c0.208,0.347,0.562,0.52,1.062,0.52c0.418,0,0.771-0.044,1.061-0.134c0.288-0.087,0.611-0.204,0.964-0.35l0.435,1.472
		c-0.435,0.209-0.907,0.378-1.42,0.506c-0.518,0.13-1.072,0.193-1.668,0.193c-0.979,0-1.67-0.277-2.072-0.831
		c-0.403-0.557-0.603-1.483-0.603-2.786v-7.042h-1.881V248.625z"/>
	<path fill="#8A9E97" d="M119.249,250.484c-0.481-0.162-0.941-0.242-1.376-0.242c-0.689,0-1.238,0.188-1.639,0.566
		c-0.403,0.379-0.651,0.855-0.749,1.435v8.442h-1.927v-12.061h1.349l0.362,1.472h0.097c0.304-0.547,0.67-0.969,1.096-1.266
		c0.426-0.298,0.968-0.446,1.628-0.446c0.466,0,0.989,0.081,1.566,0.24L119.249,250.484z"/>
	<path fill="#8A9E97" d="M121.033,244.961c0-0.37,0.125-0.688,0.373-0.953c0.251-0.266,0.567-0.398,0.954-0.398
		c0.387,0,0.715,0.133,0.989,0.398c0.274,0.266,0.409,0.583,0.409,0.953c0,0.369-0.135,0.675-0.409,0.915
		c-0.274,0.242-0.603,0.362-0.989,0.362c-0.386,0-0.703-0.12-0.954-0.362C121.158,245.636,121.033,245.33,121.033,244.961z
		 M121.444,248.625h1.927v12.061h-1.927V248.625z"/>
	<path fill="#8A9E97" d="M126.773,248.625h1.327l0.362,1.448h0.096c0.37-0.562,0.849-0.994,1.435-1.29
		c0.588-0.298,1.259-0.447,2.014-0.447c1.609,0,2.808,0.475,3.595,1.424c0.787,0.948,1.18,2.5,1.18,4.654
		c0,1.013-0.132,1.924-0.396,2.737c-0.266,0.812-0.638,1.499-1.122,2.062c-0.482,0.563-1.066,0.998-1.749,1.302
		c-0.683,0.307-1.442,0.459-2.279,0.459c-0.596,0-1.065-0.036-1.41-0.107c-0.348-0.073-0.719-0.197-1.122-0.375v5.018h-1.929
		V248.625z M131.645,250.024c-0.819,0-1.467,0.215-1.941,0.64c-0.475,0.426-0.809,1.073-1.001,1.942v5.98
		c0.289,0.225,0.62,0.398,0.989,0.518c0.37,0.121,0.859,0.182,1.471,0.182c1.111,0,1.992-0.414,2.643-1.241
		c0.649-0.829,0.976-2.046,0.976-3.655c0-0.658-0.058-1.258-0.169-1.797c-0.111-0.538-0.294-0.997-0.544-1.375
		c-0.249-0.377-0.57-0.67-0.963-0.88C132.71,250.129,132.225,250.024,131.645,250.024z"/>
	<path fill="#8A9E97" d="M147.899,259.721c-0.482,0.386-1.089,0.689-1.82,0.916c-0.731,0.226-1.507,0.337-2.328,0.337
		c-0.916,0-1.712-0.147-2.388-0.445c-0.675-0.299-1.231-0.725-1.666-1.279c-0.432-0.555-0.754-1.218-0.962-1.989
		c-0.209-0.771-0.313-1.64-0.313-2.604c0-2.058,0.456-3.626,1.374-4.704c0.916-1.076,2.228-1.615,3.932-1.615
		c0.547,0,1.093,0.062,1.639,0.182c0.548,0.122,1.038,0.35,1.472,0.688c0.433,0.337,0.788,0.816,1.062,1.437
		c0.274,0.618,0.41,1.434,0.41,2.446c0,0.53-0.049,1.118-0.145,1.761h-7.74c0,0.708,0.071,1.334,0.215,1.881
		c0.147,0.547,0.371,1.009,0.676,1.386c0.305,0.379,0.703,0.667,1.194,0.87c0.489,0.2,1.089,0.301,1.796,0.301
		c0.548,0,1.094-0.097,1.64-0.288c0.546-0.195,0.958-0.419,1.231-0.676L147.899,259.721z M143.751,250.024
		c-0.949,0-1.709,0.25-2.279,0.747c-0.569,0.5-0.912,1.351-1.025,2.557h5.981c0-1.221-0.231-2.076-0.7-2.567
		C145.261,250.271,144.603,250.024,143.751,250.024z"/>
</g>
<g>
	<path fill="#44C8F5" d="M324.45,76.552c8.712-5.966,10.938-17.858,4.974-26.566l-15.774,10.79l-0.002-0.003
		c-4.353,2.981-10.301,1.872-13.284-2.487c-2.98-4.354-1.866-10.301,2.488-13.283c0.005-0.003,0.011-0.007,0.016-0.009l14.382-9.846
		l9.259-6.339c8.712-5.965,10.937-17.857,4.974-26.567l-15.77,10.796l-23.625,16.173c-0.011,0.009-0.023,0.014-0.033,0.02
		c-13.062,8.944-16.403,26.788-7.459,39.85c8.944,13.066,26.789,16.404,39.851,7.463L324.45,76.552z"/>
	<path fill="#44C8F5" d="M345.19,39.179v0.002l-0.015,0.008c-0.034,0.024-0.064,0.055-0.101,0.078l0.118-0.081
		c-8.712,5.964-10.937,17.856-4.976,26.564l15.774-10.795l-0.007-0.007c4.355-2.983,10.302-1.872,13.281,2.484
		c2.982,4.354,1.871,10.302-2.484,13.285l0,0l-14.396,9.856l-9.259,6.338c-8.711,5.966-10.936,17.857-4.973,26.568l15.77-10.794
		l23.655-16.196v-0.002c13.063-8.942,16.405-26.785,7.462-39.848C376.093,33.572,358.252,30.236,345.19,39.179z"/>
</g>
<g>
	<g>
		<path fill="#FFFFFF" d="M271.138,149.914c0-0.698-0.257-1.266-0.768-1.702c-0.513-0.436-1.16-0.834-1.931-1.192
			c-0.774-0.36-1.615-0.731-2.52-1.113c-0.903-0.381-1.743-0.85-2.515-1.406c-0.777-0.558-1.421-1.248-1.933-2.075
			c-0.512-0.83-0.769-1.888-0.769-3.174c0-1.112,0.187-2.077,0.557-2.895c0.37-0.818,0.898-1.498,1.585-2.043
			c0.688-0.545,1.5-0.949,2.439-1.211c0.935-0.263,1.984-0.392,3.139-0.392c1.329,0,2.583,0.114,3.761,0.343
			c1.177,0.228,2.147,0.562,2.909,0.998l-1.404,3.76c-0.481-0.304-1.203-0.582-2.16-0.834c-0.96-0.248-1.996-0.377-3.105-0.377
			c-1.048,0-1.849,0.209-2.405,0.623c-0.556,0.416-0.833,0.971-0.833,1.669c0,0.654,0.256,1.198,0.766,1.634
			c0.515,0.436,1.156,0.841,1.935,1.211c0.771,0.369,1.61,0.75,2.516,1.145c0.905,0.393,1.742,0.867,2.519,1.422
			c0.773,0.556,1.417,1.243,1.93,2.061c0.514,0.818,0.768,1.837,0.768,3.059c0,1.22-0.201,2.272-0.604,3.155
			c-0.404,0.883-0.971,1.619-1.7,2.206c-0.733,0.591-1.616,1.027-2.65,1.31c-1.034,0.283-2.174,0.427-3.418,0.427
			c-1.636,0-3.073-0.154-4.315-0.459c-1.245-0.306-2.16-0.609-2.748-0.916l1.439-3.825c0.239,0.13,0.551,0.272,0.934,0.424
			c0.38,0.152,0.811,0.293,1.29,0.425c0.478,0.131,0.988,0.239,1.52,0.328c0.535,0.086,1.087,0.13,1.653,0.13
			c1.33,0,2.349-0.223,3.06-0.672C270.784,151.511,271.138,150.827,271.138,149.914z"/>
		<path fill="#FFFFFF" d="M277.254,135.097c0-0.63,0.233-1.172,0.702-1.617c0.469-0.447,1.116-0.67,1.945-0.67s1.5,0.223,2.012,0.67
			c0.514,0.445,0.77,0.987,0.77,1.617c0,0.633-0.256,1.164-0.77,1.587c-0.512,0.426-1.183,0.64-2.012,0.64s-1.477-0.214-1.945-0.64
			C277.487,136.261,277.254,135.729,277.254,135.097z M277.874,139.71h4.251v16.352h-4.251V139.71z"/>
		<path fill="#FFFFFF" d="M289.714,150.568c0,0.762,0.099,1.319,0.292,1.667c0.196,0.348,0.514,0.523,0.949,0.523
			c0.261,0,0.516-0.021,0.769-0.066c0.25-0.044,0.562-0.141,0.932-0.294l0.458,3.335c-0.349,0.175-0.884,0.351-1.604,0.524
			c-0.716,0.175-1.459,0.263-2.222,0.263c-1.243,0-2.19-0.29-2.847-0.869c-0.654-0.577-0.981-1.531-0.981-2.859v-19.625h4.254
			V150.568z"/>
		<path fill="#FFFFFF" d="M299.622,148.278l0.558,2.518h0.162l0.459-2.584l2.778-8.502h4.579l-6.834,16.517h-2.585l-7.098-16.517
			h4.938L299.622,148.278z"/>
		<path fill="#FFFFFF" d="M321.438,154.654c-0.653,0.524-1.544,0.965-2.667,1.324c-1.123,0.36-2.318,0.542-3.58,0.542
			c-2.641,0-4.569-0.769-5.789-2.307c-1.221-1.537-1.832-3.646-1.832-6.33c0-2.876,0.687-5.035,2.062-6.476
			c1.371-1.437,3.304-2.157,5.786-2.157c0.833,0,1.638,0.109,2.421,0.328c0.786,0.219,1.484,0.578,2.094,1.078
			c0.611,0.502,1.1,1.178,1.471,2.028c0.372,0.852,0.557,1.908,0.557,3.173c0,0.456-0.025,0.947-0.079,1.469
			c-0.057,0.525-0.137,1.071-0.246,1.638h-9.779c0.063,1.374,0.42,2.408,1.058,3.105c0.643,0.7,1.681,1.048,3.113,1.048
			c0.892,0,1.689-0.136,2.397-0.408c0.704-0.273,1.241-0.553,1.612-0.833L321.438,154.654z M315.368,142.652
			c-1.104,0-1.927,0.332-2.459,0.997c-0.528,0.665-0.85,1.555-0.959,2.665h6.053c0.088-1.178-0.093-2.08-0.538-2.713
			C317.021,142.969,316.321,142.652,315.368,142.652z"/>
		<path fill="#FFFFFF" d="M333.015,143.698c-0.679-0.239-1.289-0.358-1.834-0.358c-0.763,0-1.4,0.202-1.911,0.603
			c-0.514,0.406-0.855,0.924-1.031,1.556v10.563h-4.252V139.71h3.305l0.49,2.157h0.13c0.37-0.806,0.87-1.427,1.505-1.862
			c0.632-0.436,1.373-0.655,2.222-0.655c0.568,0,1.212,0.119,1.932,0.36L333.015,143.698z"/>
		<path fill="#FFFFFF" d="M345.735,150.24c0-0.917-0.271-1.663-0.817-2.241c-0.546-0.576-1.229-1.089-2.046-1.536
			c-0.815-0.448-1.702-0.867-2.665-1.259c-0.959-0.394-1.847-0.867-2.662-1.422c-0.818-0.557-1.502-1.245-2.046-2.061
			c-0.545-0.818-0.817-1.861-0.817-3.125c0-1.787,0.621-3.204,1.864-4.252c1.242-1.046,3.011-1.566,5.296-1.566
			c1.331,0,2.542,0.096,3.633,0.291c1.09,0.196,1.939,0.448,2.549,0.754l-0.816,2.386c-0.503-0.238-1.24-0.468-2.205-0.687
			c-0.974-0.219-2.07-0.325-3.289-0.325c-1.439,0-2.519,0.321-3.238,0.964s-1.079,1.401-1.079,2.273c0,0.85,0.271,1.558,0.817,2.123
			c0.544,0.568,1.225,1.076,2.043,1.522c0.816,0.447,1.707,0.889,2.667,1.325c0.958,0.436,1.848,0.943,2.666,1.52
			c0.814,0.58,1.499,1.271,2.045,2.077c0.543,0.807,0.816,1.809,0.816,3.01c0,0.98-0.175,1.865-0.526,2.647
			c-0.347,0.786-0.861,1.461-1.536,2.028c-0.676,0.567-1.493,1.003-2.452,1.31c-0.958,0.305-2.049,0.456-3.268,0.456
			c-1.638,0-2.99-0.126-4.057-0.375c-1.071-0.25-1.897-0.529-2.485-0.835l0.915-2.451c0.499,0.282,1.243,0.56,2.223,0.832
			c0.98,0.272,2.083,0.409,3.305,0.409c0.72,0,1.395-0.069,2.027-0.211c0.633-0.143,1.178-0.372,1.636-0.688
			c0.459-0.314,0.821-0.713,1.094-1.194C345.601,151.463,345.735,150.894,345.735,150.24z"/>
		<path fill="#FFFFFF" d="M349.365,139.71h2.551v-3.238l2.616-0.753v3.991h4.446V142h-4.446v9.057c0,1.135,0.141,1.937,0.425,2.404
			c0.283,0.469,0.762,0.704,1.441,0.704c0.563,0,1.045-0.06,1.438-0.181c0.392-0.119,0.826-0.278,1.306-0.475l0.59,1.995
			c-0.59,0.284-1.23,0.512-1.927,0.687c-0.7,0.175-1.454,0.262-2.262,0.262c-1.328,0-2.264-0.375-2.81-1.127
			c-0.546-0.753-0.817-2.012-0.817-3.778V142h-2.551V139.71z"/>
		<path fill="#FFFFFF" d="M369.348,142.228c-0.655-0.217-1.277-0.328-1.865-0.328c-0.935,0-1.679,0.258-2.224,0.77
			c-0.547,0.512-0.882,1.16-1.017,1.946v11.446h-2.612V139.71h1.829l0.493,1.994h0.13c0.413-0.742,0.91-1.312,1.487-1.717
			c0.579-0.402,1.314-0.605,2.208-0.605c0.632,0,1.342,0.109,2.126,0.328L369.348,142.228z"/>
		<path fill="#FFFFFF" d="M371.768,134.738c0-0.501,0.168-0.931,0.504-1.291c0.341-0.36,0.771-0.54,1.293-0.54
			c0.525,0,0.973,0.18,1.342,0.54c0.372,0.36,0.557,0.79,0.557,1.291s-0.185,0.916-0.557,1.242
			c-0.369,0.329-0.816,0.491-1.342,0.491c-0.522,0-0.952-0.162-1.293-0.491C371.936,135.654,371.768,135.239,371.768,134.738z
			 M372.323,139.71h2.615v16.352h-2.615V139.71z"/>
		<path fill="#FFFFFF" d="M379.552,139.71h1.797l0.491,1.961h0.131c0.501-0.762,1.151-1.346,1.945-1.749
			c0.797-0.404,1.707-0.606,2.731-0.606c2.181,0,3.807,0.645,4.872,1.932c1.07,1.285,1.602,3.391,1.602,6.311
			c0,1.375-0.18,2.61-0.538,3.711c-0.36,1.103-0.864,2.034-1.522,2.799c-0.65,0.762-1.443,1.353-2.37,1.766
			c-0.927,0.415-1.957,0.62-3.092,0.62c-0.804,0-1.442-0.049-1.911-0.146c-0.47-0.098-0.975-0.268-1.521-0.507v6.801h-2.614V139.71z
			 M386.156,141.605c-1.113,0-1.989,0.29-2.631,0.869c-0.643,0.576-1.097,1.453-1.359,2.631v8.11
			c0.392,0.306,0.841,0.54,1.342,0.704c0.502,0.163,1.165,0.245,1.994,0.245c1.506,0,2.7-0.562,3.583-1.685
			c0.882-1.123,1.325-2.773,1.325-4.954c0-0.895-0.078-1.708-0.231-2.438c-0.15-0.729-0.397-1.352-0.735-1.863
			c-0.336-0.513-0.775-0.912-1.308-1.193C387.601,141.748,386.944,141.605,386.156,141.605z"/>
		<path fill="#FFFFFF" d="M408.199,154.753c-0.654,0.524-1.479,0.938-2.469,1.244c-0.992,0.305-2.044,0.456-3.158,0.456
			c-1.238,0-2.321-0.2-3.236-0.604c-0.916-0.404-1.67-0.982-2.257-1.734s-1.026-1.651-1.308-2.697
			c-0.283-1.047-0.425-2.224-0.425-3.534c0-2.789,0.618-4.915,1.862-6.377c1.242-1.459,3.022-2.191,5.332-2.191
			c0.741,0,1.482,0.083,2.224,0.247c0.742,0.163,1.406,0.476,1.995,0.933s1.068,1.105,1.439,1.945c0.37,0.84,0.555,1.945,0.555,3.32
			c0,0.718-0.065,1.515-0.195,2.387h-10.498c0,0.959,0.097,1.809,0.293,2.551c0.198,0.742,0.501,1.368,0.917,1.88
			c0.414,0.513,0.955,0.905,1.618,1.178c0.664,0.272,1.478,0.409,2.439,0.409c0.738,0,1.48-0.132,2.221-0.394
			c0.741-0.262,1.298-0.565,1.669-0.914L408.199,154.753z M402.572,141.605c-1.284,0-2.317,0.339-3.09,1.014
			c-0.771,0.678-1.237,1.832-1.39,3.467h8.11c0-1.656-0.314-2.816-0.949-3.482C404.621,141.939,403.728,141.605,402.572,141.605z"/>
	</g>
</g>
<g>
	<path fill="#8A9E97" d="M150.994,136.125c0-0.571,0.094-1.077,0.282-1.521c0.187-0.44,0.444-0.811,0.769-1.109
		c0.326-0.299,0.704-0.527,1.131-0.685c0.428-0.155,0.884-0.233,1.366-0.233c0.491,0,0.953,0.078,1.386,0.233
		c0.433,0.157,0.809,0.386,1.131,0.685c0.321,0.299,0.573,0.669,0.756,1.109c0.183,0.443,0.274,0.949,0.274,1.521
		s-0.094,1.077-0.282,1.521c-0.188,0.44-0.444,0.812-0.769,1.11c-0.326,0.299-0.704,0.526-1.132,0.682
		c-0.429,0.157-0.884,0.235-1.366,0.235c-0.5,0-0.964-0.078-1.392-0.235c-0.429-0.155-0.803-0.383-1.125-0.682
		c-0.321-0.299-0.573-0.67-0.757-1.11C151.085,137.202,150.994,136.696,150.994,136.125z M151.837,136.125
		c0,0.464,0.071,0.869,0.213,1.213c0.144,0.343,0.338,0.629,0.583,0.855c0.246,0.229,0.533,0.398,0.864,0.517
		c0.33,0.114,0.678,0.174,1.044,0.174c0.384,0,0.741-0.057,1.072-0.168c0.329-0.111,0.616-0.28,0.856-0.508
		c0.241-0.229,0.43-0.515,0.569-0.858c0.138-0.343,0.207-0.752,0.207-1.225c0-0.463-0.071-0.867-0.213-1.213
		c-0.143-0.343-0.338-0.628-0.583-0.855c-0.246-0.228-0.531-0.399-0.857-0.516c-0.325-0.115-0.675-0.173-1.051-0.173
		c-0.393,0-0.754,0.058-1.084,0.173c-0.331,0.116-0.616,0.288-0.857,0.516c-0.241,0.228-0.428,0.513-0.562,0.855
		C151.904,135.258,151.837,135.662,151.837,136.125z M153.163,134.384c0.142-0.044,0.344-0.078,0.602-0.1
		c0.259-0.022,0.504-0.033,0.737-0.033c0.375,0,0.696,0.078,0.964,0.234c0.267,0.155,0.401,0.427,0.401,0.81
		c0,0.286-0.092,0.504-0.275,0.657c-0.183,0.15-0.408,0.235-0.675,0.253l0.375,0.188l0.991,1.459h-0.817l-0.964-1.392l-0.643-0.201
		v1.593h-0.696V134.384z M154.354,134.854c-0.098,0-0.192,0.002-0.281,0.006c-0.089,0.005-0.161,0.02-0.214,0.047v0.951h0.455
		c0.258,0,0.459-0.041,0.603-0.12c0.142-0.081,0.214-0.219,0.214-0.415C155.131,135.009,154.872,134.854,154.354,134.854z"/>
</g>
<g>
	<path fill="#FFFFFF" d="M408.754,136.125c0-0.571,0.094-1.077,0.282-1.521c0.187-0.44,0.443-0.811,0.769-1.109
		c0.326-0.299,0.704-0.527,1.132-0.685c0.428-0.155,0.884-0.233,1.365-0.233c0.491,0,0.953,0.078,1.387,0.233
		c0.432,0.157,0.809,0.386,1.131,0.685c0.321,0.299,0.572,0.669,0.756,1.109c0.184,0.443,0.275,0.949,0.275,1.521
		s-0.094,1.077-0.282,1.521c-0.188,0.44-0.444,0.812-0.769,1.11c-0.326,0.299-0.704,0.526-1.133,0.682
		c-0.428,0.157-0.883,0.235-1.365,0.235c-0.5,0-0.964-0.078-1.393-0.235c-0.428-0.155-0.803-0.383-1.125-0.682
		c-0.32-0.299-0.572-0.67-0.756-1.11C408.845,137.202,408.754,136.696,408.754,136.125z M409.598,136.125
		c0,0.464,0.071,0.869,0.214,1.213c0.143,0.343,0.338,0.629,0.582,0.855c0.246,0.229,0.533,0.398,0.864,0.517
		c0.33,0.114,0.679,0.174,1.044,0.174c0.384,0,0.741-0.057,1.072-0.168c0.328-0.111,0.615-0.28,0.855-0.508
		c0.241-0.229,0.431-0.515,0.57-0.858c0.138-0.343,0.207-0.752,0.207-1.225c0-0.463-0.072-0.867-0.214-1.213
		c-0.144-0.343-0.338-0.628-0.583-0.855c-0.246-0.228-0.531-0.399-0.857-0.516c-0.325-0.115-0.676-0.173-1.051-0.173
		c-0.393,0-0.754,0.058-1.084,0.173c-0.33,0.116-0.616,0.288-0.857,0.516c-0.24,0.228-0.428,0.513-0.562,0.855
		C409.664,135.258,409.598,135.662,409.598,136.125z M410.923,134.384c0.143-0.044,0.344-0.078,0.603-0.1
		c0.259-0.022,0.505-0.033,0.737-0.033c0.374,0,0.695,0.078,0.963,0.234c0.268,0.155,0.402,0.427,0.402,0.81
		c0,0.286-0.093,0.504-0.275,0.657c-0.183,0.15-0.408,0.235-0.676,0.253l0.375,0.188l0.991,1.459h-0.817l-0.963-1.392l-0.643-0.201
		v1.593h-0.697V134.384z M412.114,134.854c-0.098,0-0.191,0.002-0.281,0.006c-0.089,0.005-0.16,0.02-0.213,0.047v0.951h0.455
		c0.258,0,0.459-0.041,0.602-0.12c0.143-0.081,0.215-0.219,0.215-0.415C412.892,135.009,412.632,134.854,412.114,134.854z"/>
</g>
<g>
	<path fill="#8A9E97" d="M148.31,245.97c0-0.405,0.066-0.766,0.2-1.08c0.134-0.314,0.316-0.577,0.547-0.789
		c0.232-0.213,0.5-0.375,0.804-0.485c0.305-0.111,0.629-0.167,0.971-0.167c0.349,0,0.677,0.056,0.985,0.167
		c0.308,0.11,0.576,0.272,0.805,0.485c0.228,0.212,0.407,0.475,0.538,0.789c0.13,0.314,0.195,0.675,0.195,1.08
		c0,0.406-0.066,0.766-0.2,1.081c-0.133,0.313-0.316,0.578-0.547,0.789c-0.232,0.213-0.5,0.375-0.804,0.485
		c-0.305,0.111-0.629,0.167-0.971,0.167c-0.355,0-0.685-0.056-0.99-0.167c-0.305-0.11-0.571-0.272-0.799-0.485
		c-0.228-0.211-0.408-0.476-0.538-0.789C148.375,246.735,148.31,246.376,148.31,245.97z M148.909,245.97
		c0,0.33,0.051,0.617,0.152,0.861c0.102,0.244,0.24,0.447,0.415,0.609c0.174,0.161,0.379,0.284,0.614,0.367
		c0.234,0.081,0.481,0.124,0.742,0.124c0.273,0,0.527-0.04,0.762-0.12c0.234-0.079,0.437-0.199,0.608-0.361s0.307-0.365,0.405-0.609
		c0.098-0.245,0.147-0.535,0.147-0.871c0-0.329-0.051-0.616-0.152-0.86c-0.102-0.245-0.24-0.448-0.414-0.61
		c-0.175-0.161-0.378-0.283-0.609-0.366c-0.231-0.081-0.48-0.123-0.747-0.123c-0.279,0-0.536,0.042-0.771,0.123
		c-0.234,0.083-0.438,0.205-0.609,0.366c-0.171,0.162-0.304,0.365-0.399,0.61C148.957,245.354,148.909,245.641,148.909,245.97z
		 M149.852,244.732c0.101-0.032,0.244-0.056,0.428-0.071c0.184-0.016,0.359-0.023,0.523-0.023c0.267,0,0.495,0.055,0.686,0.167
		c0.19,0.11,0.286,0.304,0.286,0.575c0,0.202-0.065,0.358-0.195,0.466c-0.13,0.108-0.29,0.169-0.48,0.181l0.266,0.134l0.705,1.037
		h-0.581l-0.686-0.989l-0.457-0.145v1.134h-0.495V244.732z M150.698,245.065c-0.069,0-0.136,0.003-0.199,0.006
		c-0.063,0.002-0.114,0.014-0.152,0.033v0.675h0.324c0.184,0,0.327-0.028,0.429-0.085c0.101-0.058,0.152-0.155,0.152-0.295
		C151.25,245.177,151.067,245.065,150.698,245.065z"/>
</g>
<g>
	<path fill="#FFFFFF" d="M413.002,245.965c0-0.405,0.066-0.766,0.2-1.08c0.133-0.314,0.315-0.577,0.547-0.789
		c0.232-0.213,0.5-0.375,0.804-0.485c0.305-0.111,0.629-0.167,0.972-0.167c0.348,0,0.677,0.056,0.984,0.167
		c0.308,0.11,0.576,0.272,0.805,0.485c0.229,0.212,0.407,0.475,0.537,0.789c0.131,0.314,0.195,0.675,0.195,1.08
		c0,0.406-0.066,0.766-0.199,1.081c-0.134,0.313-0.316,0.578-0.548,0.789c-0.231,0.213-0.499,0.375-0.804,0.485
		c-0.305,0.111-0.629,0.167-0.971,0.167c-0.355,0-0.686-0.056-0.99-0.167c-0.305-0.11-0.57-0.272-0.799-0.485
		c-0.229-0.211-0.408-0.476-0.538-0.789C413.067,246.73,413.002,246.371,413.002,245.965z M413.602,245.965
		c0,0.33,0.051,0.617,0.151,0.861c0.103,0.244,0.24,0.447,0.415,0.609c0.175,0.161,0.38,0.284,0.614,0.367
		c0.234,0.081,0.481,0.124,0.742,0.124c0.272,0,0.526-0.04,0.762-0.12c0.234-0.079,0.437-0.199,0.607-0.361
		c0.172-0.162,0.307-0.365,0.405-0.609c0.099-0.245,0.147-0.535,0.147-0.871c0-0.329-0.051-0.616-0.152-0.86
		c-0.102-0.245-0.239-0.448-0.414-0.61c-0.174-0.161-0.377-0.283-0.609-0.366c-0.23-0.081-0.479-0.123-0.746-0.123
		c-0.279,0-0.536,0.042-0.771,0.123c-0.234,0.083-0.438,0.205-0.609,0.366c-0.171,0.162-0.304,0.365-0.398,0.61
		C413.649,245.349,413.602,245.636,413.602,245.965z M414.544,244.728c0.102-0.032,0.244-0.056,0.428-0.071s0.359-0.023,0.523-0.023
		c0.267,0,0.495,0.055,0.686,0.167c0.19,0.11,0.285,0.304,0.285,0.575c0,0.202-0.064,0.358-0.195,0.466
		c-0.129,0.108-0.289,0.169-0.479,0.181l0.266,0.134l0.704,1.037h-0.58l-0.686-0.989l-0.457-0.145v1.134h-0.494V244.728z
		 M415.39,245.061c-0.068,0-0.135,0.003-0.199,0.006c-0.062,0.002-0.113,0.014-0.152,0.033v0.675h0.324
		c0.184,0,0.326-0.028,0.429-0.085c0.101-0.058,0.151-0.155,0.151-0.295C415.942,245.172,415.759,245.061,415.39,245.061z"/>
</g>
</svg>
