<?xml version="1.0" encoding="utf-8"?>
<!-- Generator: Adobe Illustrator 16.0.0, SVG Export Plug-In . SVG Version: 6.00 Build 0)  -->
<!DOCTYPE svg PUBLIC "-//W3C//DTD SVG 1.1//EN" "http://www.w3.org/Graphics/SVG/1.1/DTD/svg11.dtd">
<svg version="1.1" id="Layer_1" xmlns="http://www.w3.org/2000/svg" xmlns:xlink="http://www.w3.org/1999/xlink" x="0px" y="0px"
	 width="188.5px" height="188.5px" viewBox="-58.5 -58.5 188.5 188.5" enable-background="new -58.5 -58.5 188.5 188.5"
	 xml:space="preserve">
<g>
	<rect x="-1.057" y="70.629" fill="#A62C46" width="4.176" height="3.379"/>
	<rect x="18.616" y="70.32" fill="#A62C46" width="4.663" height="5.203"/>
	<path fill="#A62C46" d="M35.75-58.5c-52.052,0-94.25,42.198-94.25,94.25c0,52.053,42.198,94.25,94.25,94.25
		C87.803,130,130,87.803,130,35.75C130-16.302,87.803-58.5,35.75-58.5z M66.025-20.881l5.304,3.857l-0.963,1.446l-4.5-2.41
		L66.025-20.881z M50.601-25.54l0.643,4.177l-6.59,0.161l-0.963-4.661L50.601-25.54z M30.193-23.29l3.856,4.338l-5.301,3.052
		l-3.857-4.659L30.193-23.29z M12.197-9.471l5.623,3.696l-4.336,5.141L7.698-4.489L12.197-9.471z M-2.104,11.739l7.392,2.893
		L3.04,20.899l-7.553-2.411L-2.104,11.739z M-10.138,38.574l8.357,0.643l-1.446,8.354l-7.875-0.966L-10.138,38.574z M3.119,83.923
		l-4.406-4.406v4.944H-6.13V65.479h6.2c4.898,0,9.144,0.728,9.144,6.354c-0.322,6.128-4.562,6.198-4.562,6.198l5.893,5.892H3.119
		L3.119,83.923z M28.349,83.897h-4.995v-3.152h-4.816v3.228h-4.97v-13.19c0-4.996,3.675-5.242,6.328-5.226c0.377,0,0.725,0,1.05,0
		c2.583,0,7.404,0.168,7.404,4.508V83.897z M38.469,83.726h-5.142V65.568h5.142V83.726z M56.223,83.968h-12.37V65.81l5.061-0.083
		v13.419h7.31V83.968z M42.888,15.435l-1.287,5.302l-5.462-4.66l2.086-4.178L42.888,15.435z M41.281,1.616l3.373-3.054l3.214,4.819
		l-1.929,3.375L41.281,1.616z M42.085,29.735l0.32,5.302l-6.748-2.892l0.322-5.623L42.085,29.735z M44.974,46.447l3.054,6.269
		l-8.515-0.483l-1.608-5.786H44.974z M53.333-2.562l-2.088-3.856l4.499-1.125l0.642,2.571L53.333-2.562z M65.544,84.128
		c-5.383,0-6.506,0-6.506,0v-4.419c0,0,5.223,0,7.471,0c2.249,0,2.373-0.733,2.373-1.369c0-0.639-1.149-0.937-3.489-0.937
		s-6.677-1.149-6.677-5.649s2.25-6.188,6.75-6.188c4.498,0,7.15,0.084,7.15,0.084v4.9h-8.275v1.766c0,0,1.687,0,3.536,0
		c1.846,0,5.703-0.08,5.703,5.705C73.579,83.807,70.927,84.128,65.544,84.128z M65.062-6.097v-2.41L69.4-7.544v1.929L65.062-6.097z
		 M74.543-6.419c0,0-4.82-5.465-13.659-4.501c-8.839,0.964-24.426,9.963-26.835,29.727c-2.41,19.764,7.072,41.296,7.072,41.296
		H-1.622c0,0-1.124-7.07,1.606-20.569c2.731-13.498,6.748-22.496,13.659-35.35c6.91-12.855,17.996-23.461,34.065-24.905
		C63.776-22.168,76.472-9.313,76.472-9.313L74.543-6.419z"/>
</g>
</svg>
